<svg width="102" height="48" viewBox="0 0 102 48" fill="none" xmlns="http://www.w3.org/2000/svg">
<g clip-path="url(#clip0_1814_2133)">
<path d="M35.6296 39.8264C35.6296 36.3819 29.8888 33.7029 27.5925 39.8264C22.8363 52.5097 23.0695 33.9835 25.2962 27.4274C27.5925 20.6667 16.1111 34.4444 10.3703 34.4444C2.95602 34.4444 16.1111 14.3754 13.8148 11.4815C11.0817 8.03705 6.92587 11.4815 4.62958 16.0741" stroke="white" stroke-width="4.59259" stroke-linecap="round"/>
<path d="M96.4815 37.5301C91.7252 50.2134 91.9584 31.6872 94.1852 25.1311C96.4815 18.3704 85 32.1481 79.2593 32.1481C71.845 32.1481 85 12.0791 82.7037 9.18517C79.9707 5.74075 75.8148 9.18518 73.5185 13.7778" stroke="white" stroke-width="4.59259" stroke-linecap="round"/>
<path d="M51.7037 13.7778C41.9805 9.18518 36.992 24.2316 44.2481 33.4914C53.3181 45.0661 71.4581 22.8813 63.5219 11.3066C58.7118 4.29131 46.5155 3.5901 41.9805 5.51922" stroke="white" stroke-width="4.59259" stroke-linecap="round" stroke-linejoin="round"/>
</g>
<defs>
<clipPath id="clip0_1814_2133">
<rect width="102" height="48" fill="white"/>
</clipPath>
</defs>
</svg>
