<svg width="102" height="48" viewBox="0 0 102 48" fill="none" xmlns="http://www.w3.org/2000/svg">
<g clip-path="url(#clip0_1814_2130)">
<path d="M33.6296 36.8264C33.6296 33.3819 27.8888 30.7029 25.5925 36.8264C20.8363 49.5097 21.0695 30.9835 23.2962 24.4274C25.5925 17.6667 14.1111 31.4444 8.37032 31.4444C0.956022 31.4444 14.1111 11.3754 11.8148 8.48147C9.0817 5.03705 4.92587 8.48147 2.62958 13.0741" stroke="#393939" stroke-width="4.59259" stroke-linecap="round"/>
<path d="M94.4815 37.5301C89.7252 50.2134 89.9584 31.6872 92.1852 25.1311C94.4815 18.3704 83 32.1481 77.2593 32.1481C69.845 32.1481 83 12.0791 80.7037 9.18517C77.9707 5.74075 73.8148 9.18518 71.5185 13.7778" stroke="#393939" stroke-width="4.59259" stroke-linecap="round"/>
<path d="M49.7037 13.7778C39.9805 9.18518 34.992 24.2316 42.2481 33.4914C51.3181 45.0661 69.4581 22.8813 61.5219 11.3066C56.7118 4.29131 44.5155 3.5901 39.9805 5.51922" stroke="#393939" stroke-width="4.59259" stroke-linecap="round" stroke-linejoin="round"/>
</g>
<defs>
<clipPath id="clip0_1814_2130">
<rect width="102" height="48" fill="white"/>
</clipPath>
</defs>
</svg>
